HIERARCHY
ROOT Hips
{
	OFFSET 0.00000 0.00000 0.00000
	CHANNELS 6 Xposition Yposition Zposition Yrotation Zrotation Xrotation 
	JOINT Lumbar
	{
		OFFSET 0 0 0
		CHANNELS 3 Zrotation Xrotation Yrotation
		JOINT Neck
		{
			OFFSET 0.00 0.2701 0.00
			CHANNELS 3 Zrotation Xrotation Yrotation
			End Site
			{
				OFFSET 0.00 0.1379 0.00
			}
		}
		JOINT RightShoulder
		{
			OFFSET 0.0119 0.2289 0.1181
			CHANNELS 3 Zrotation Xrotation Yrotation
			JOINT RightElbow
			{
				OFFSET 0.00 -0.1475 0.00
				CHANNELS 2 Zrotation Yrotation
				JOINT RightWrist
				{
					OFFSET 0.00 -0.1605 0.00
					CHANNELS 2 Zrotation Xrotation
					End Site
					{
						OFFSET 0.0040 -0.1068 0.0006
					}
				}
			}
		}
		JOINT LeftShoulder
		{
			OFFSET 0.0119 0.2289 -0.1181
			CHANNELS 3 Zrotation Xrotation Yrotation
			JOINT LeftElbow
			{
				OFFSET 0.00 -0.1475 0.00
				CHANNELS 2 Zrotation Yrotation
				JOINT LeftWrist
				{
					OFFSET 0.00 -0.1605 0.00
					CHANNELS 2 Zrotation Xrotation
					End Site
					{
						OFFSET 0.0040 -0.1068 -0.0006
					}
				}
			}
		}
	}
	JOINT RightHip
	{
		OFFSET 0.0316 -0.0424 0.0458
		CHANNELS 3 Zrotation Xrotation Yrotation
		JOINT RightKnee
		{
			OFFSET 0.00 -0.2438 0.00
			CHANNELS 1 Zrotation
			JOINT RightAnkle
			{
				OFFSET 0.00 -0.2449 0.00
				CHANNELS 3 Zrotation Xrotation Yrotation
				End Site
				{
					OFFSET 0.1237 -0.0542 0.0051
				}
			}
		}
	}
	JOINT LeftHip
	{
		OFFSET 0.0316 -0.0424 -0.0458
		CHANNELS 3 Zrotation Xrotation Yrotation
		JOINT LeftKnee
		{
			OFFSET 0.00 -0.2438 0.00
			CHANNELS 1 Zrotation
			JOINT LeftAnkle
			{
				OFFSET 0.00 -0.2449 0.00
				CHANNELS 3 Zrotation Xrotation Yrotation
				End Site
				{
					OFFSET 0.1237 -0.0542 -0.0051
				}
			}
		}
	}
}
MOTION
Frames: 23
Frame Time: 0.02
0 0.57926 0 181.81644 0 -3.99897 1.961 3.16205 -5.11332 -31.71838 4.28539 4.03949 -9.95849 -71.02003 -73.36847 23.15426 76.43089 -18.91001 -1.92371 -5.73807 67.31618 68.66849 23.21903 -70.89084 -23.85191 1.25679 -3.8182 3.3606 4.65841 -6.62624 -1.89756 -2.75942 -6.58489 -1.08278 5.89751 -2.54253 -8.05166 5.7168 1.61178 -0.03121
-1e-05 0.57926 0 181.81645 0 -3.9991 1.94993 3.16565 -5.11959 -31.70684 4.29318 4.03939 -9.99143 -71.02845 -73.41783 23.16506 76.36358 -18.89366 -1.90505 -5.74627 67.28603 68.69346 23.21502 -70.80517 -23.90922 1.26614 -3.81807 3.36162 4.66504 -6.6291 -1.89565 -2.76597 -6.59416 -1.0836 5.89849 -2.53028 -8.05245 5.71544 1.57879 -0.03548
-2e-05 0.57926 0 181.81646 0 -3.99923 1.93889 3.16923 -5.12579 -31.69559 4.3009 4.0393 -10.02384 -71.03681 -73.46672 23.17569 76.29691 -18.87738 -1.88665 -5.7541 67.25608 68.71809 23.21104 -70.72022 -23.96597 1.27538 -3.818 3.36265 4.67172 -6.63187 -1.89377 -2.77254 -6.60345 -1.08445 5.89946 -2.51811 -8.05322 5.71411 1.54606 -0.03973
-3e-05 0.57926 0 181.81645 0 -3.99936 1.92791 3.17276 -5.1318 -31.68531 4.30849 4.03924 -10.05454 -71.04514 -73.5143 23.18574 76.23173 -18.86087 -1.86911 -5.76075 67.22664 68.74179 23.20722 -70.63745 -24.02092 1.28428 -3.81812 3.36371 4.67871 -6.63429 -1.89202 -2.77925 -6.61299 -1.08539 5.90044 -2.50613 -8.05386 5.71292 1.51407 -0.04403
-4e-05 0.57925 0 181.81653 0 -3.99951 1.9167 3.17655 -5.13887 -31.66984 4.31685 4.03901 -10.09441 -71.05377 -73.56896 23.19882 76.15818 -18.84513 -1.847 -5.77388 67.19452 68.77065 23.20266 -70.54332 -24.08525 1.29501 -3.81718 3.3646 4.68409 -6.63855 -1.88961 -2.78522 -6.62126 -1.08582 5.90135 -2.49314 -8.05516 5.71101 1.47817 -0.04814
-6e-05 0.57925 0 181.8164 0 -3.99961 1.90594 3.17978 -5.14366 -31.6654 4.32353 4.03916 -10.11475 -71.06168 -73.6085 23.20551 76.10271 -18.82807 -1.83461 -5.77313 67.1681 68.78842 23.1996 -70.4732 -24.12977 1.30181 -3.81849 3.36584 4.69283 -6.63893 -1.88858 -2.79272 -6.63216 -1.08732 5.90242 -2.48231 -8.05509 5.71063 1.45057 -0.0526
-8e-05 0.57925 -2e-05 181.81579 0 -3.99955 1.8964 3.18144 -5.14225 -31.69212 4.32581 4.04041 -10.08054 -71.06822 -73.60642 23.19411 76.09506 -18.80439 -1.84944 -5.73415 67.15729 68.77645 23.20123 -70.47091 -24.11832 1.29791 -3.82641 3.36826 4.71194 -6.62799 -1.89158 -2.80511 -6.65144 -1.09196 5.90411 -2.47719 -8.05089 5.7147 1.44604 -0.05871
-0.00011 0.57925 -4e-05 181.81495 0 -3.99942 1.88729 3.18254 -5.13851 -31.72986 4.32637 4.04204 -10.02673 -71.07393 -73.58906 23.17638 76.10615 -18.7799 -1.87404 -5.68123 67.15223 68.75325 23.20427 -70.49265 -24.08717 1.29005 -3.83657 3.371 4.7343 -6.61322 -1.89593 -2.81894 -6.67322 -1.09765 5.90594 -2.47428 -8.04537 5.7203 1.44986 -0.06506
-0.00014 0.57925 -6e-05 181.81414 0 -3.9993 1.87797 3.18392 -5.13574 -31.76215 4.32756 4.0435 -9.98217 -71.07958 -73.57855 23.16179 76.1099 -18.75773 -1.89398 -5.63441 67.14469 68.73445 23.20627 -70.50233 -24.06575 1.28385 -3.84546 3.37346 4.75447 -6.60059 -1.89949 -2.8317 -6.69313 -1.10272 5.90761 -2.47052 -8.04071 5.7251 1.44977 -0.07086
-0.00017 0.57925 -8e-05 181.81362 0 -3.99926 1.86874 3.18523 -5.13331 -31.79634 4.32935 4.04501 -9.93595 -71.087 -73.56836 23.14593 76.10826 -18.7274 -1.91487 -5.58805 67.13671 68.71807 23.20991 -70.51656 -24.04073 1.27809 -3.85536 3.37646 4.77754 -6.58629 -1.90377 -2.8462 -6.71605 -1.10837 5.90971 -2.46613 -8.03499 5.73034 1.45016 -0.07848
-0.0002 0.57924 -0.0001 181.81247 0 -3.99905 1.85938 3.18653 -5.12969 -31.82915 4.32953 4.04645 -9.88882 -71.09064 -73.55394 23.13141 76.12282 -18.71377 -1.93608 -5.53806 67.13083 68.69469 23.21051 -70.52736 -24.01891 1.27066 -3.86373 3.37843 4.79544 -6.57454 -1.9069 -2.85743 -6.7334 -1.11309 5.91093 -2.46355 -8.0311 5.735 1.45153 -0.08244
-0.00022 0.57924 -0.0001 181.8095 0 -3.99841 1.85 3.18797 -5.12272 -31.85572 4.32523 4.04786 -9.84157 -71.08306 -73.53097 23.12043 76.17258 -18.74721 -1.95588 -5.47601 67.13089 68.64869 23.20217 -70.5198 -24.00758 1.25773 -3.86713 3.37753 4.79747 -6.57106 -1.90629 -2.85913 -6.7338 -1.11471 5.90974 -2.46572 -8.03313 5.73785 1.45357 -0.0756
-0.00024 0.57924 -0.0001 181.80595 0 -3.9976 1.8404 3.18943 -5.11474 -31.88047 4.31945 4.04913 -9.79454 -71.07186 -73.5044 23.11136 76.23867 -18.79733 -1.97565 -5.41175 67.13256 68.5971 23.19078 -70.50856 -24.00074 1.24356 -3.86896 3.37559 4.79432 -6.57024 -1.90453 -2.85752 -6.72866 -1.11542 5.90765 -2.4696 -8.03694 5.74003 1.45631 -0.06519
-0.00026 0.57923 -0.0001 181.80277 0 -3.99686 1.83061 3.19087 -5.10764 -31.90588 4.31467 4.05028 -9.749 -71.06304 -73.47982 23.1025 76.30081 -18.83932 -1.99541 -5.35214 67.13242 68.55214 23.18091 -70.50093 -23.99388 1.23118 -3.87162 3.3741 4.79413 -6.56803 -1.90345 -2.85751 -6.7267 -1.11671 5.90593 -2.47251 -8.03958 5.7424 1.45871 -0.05685
-0.00028 0.57923 -0.0001 181.79913 0 -3.99615 1.82204 3.19233 -5.09871 -31.93239 4.30852 4.05219 -9.69603 -71.05129 -73.45305 23.08879 76.34991 -18.88364 -2.01565 -5.27684 67.13697 68.4898 23.17046 -70.48577 -23.97774 1.21355 -3.87385 3.37272 4.79163 -6.56647 -1.90174 -2.85712 -6.72212 -1.1173 5.90436 -2.47628 -8.04372 5.74531 1.46146 -0.04665
-0.0003 0.57923 -9e-05 181.79631 0 -3.99534 1.81087 3.19373 -5.09332 -31.95601 4.30482 4.0525 -9.65888 -71.04455 -73.43036 23.08582 76.42861 -18.92704 -2.0347 -5.23365 67.13213 68.46215 23.16055 -70.48533 -23.98232 1.20652 -3.87661 3.37086 4.79252 -6.56419 -1.90104 -2.85672 -6.72153 -1.11914 5.90227 -2.47864 -8.04517 5.7469 1.46357 -0.03942
-0.00032 0.57923 -6e-05 181.7959 0 -3.9943 1.79273 3.19515 -5.09845 -31.97238 4.30878 4.04825 -9.66502 -71.05438 -73.41815 23.1112 76.59558 -18.96397 -2.05086 -5.28146 67.10038 68.53442 23.15228 -70.52415 -24.04243 1.22995 -3.88095 3.36802 4.80524 -6.55974 -1.90346 -2.85717 -6.73442 -1.12463 5.899 -2.47663 -8.03879 5.74503 1.46362 -0.04168
-0.00035 0.57923 -3e-05 181.79635 0 -3.99315 1.77194 3.19647 -5.10709 -31.9858 4.31518 4.04241 -9.68712 -71.06897 -73.41036 23.14757 76.78994 -18.99934 -2.06572 -5.36127 67.05918 68.64119 23.14475 -70.57805 -24.12323 1.26394 -3.88594 3.36473 4.82132 -6.55442 -1.90693 -2.85772 -6.7513 -1.13143 5.89522 -2.47312 -8.02966 5.74183 1.46298 -0.04698
-0.00037 0.57923 0 181.7964 0 -3.99205 1.75225 3.19769 -5.11381 -32.00032 4.32016 4.03743 -9.70242 -71.0802 -73.40194 23.17944 76.96449 -19.03541 -2.08083 -5.42545 67.02267 68.7306 23.13724 -70.62666 -24.19535 1.29258 -3.89084 3.36157 4.83507 -6.5492 -1.90991 -2.85817 -6.76556 -1.13768 5.89164 -2.47031 -8.02178 5.73921 1.46273 -0.05056
-0.00039 0.57924 4e-05 181.79644 0 -3.99098 1.733 3.19948 -5.12185 -32.01578 4.32643 4.03191 -9.71633 -71.09655 -73.38833 23.20906 77.16982 -19.07229 -2.09729 -5.49459 66.98464 68.82752 23.12809 -70.66927 -24.2655 1.3236 -3.89483 3.35866 4.85202 -6.54527 -1.91294 -2.8587 -6.78295 -1.14372 5.88818 -2.46751 -8.01391 5.73665 1.46226 -0.05537
-0.00042 0.57924 7e-05 181.79674 0 -3.9898 1.7122 3.20009 -5.12801 -32.02862 4.33057 4.02709 -9.73625 -71.10317 -73.38568 23.24622 77.31845 -19.10663 -2.11078 -5.56045 66.94742 68.91633 23.1226 -70.72709 -24.34346 1.35207 -3.90085 3.35515 4.86319 -6.5385 -1.91608 -2.85915 -6.79494 -1.1505 5.88435 -2.46428 -8.00537 5.73367 1.46202 -0.05848
-0.00046 0.57924 0.00011 181.79734 0 -3.98829 1.68794 3.19737 -5.12801 -32.0347 4.32846 4.02487 -9.77472 -71.08383 -73.42011 23.29954 77.29427 -19.13657 -2.11503 -5.61462 66.91534 68.98066 23.12723 -70.83108 -24.44764 1.37181 -3.91265 3.34998 4.85727 -6.52347 -1.91953 -2.85921 -6.79035 -1.1592 5.87962 -2.46053 -7.99535 5.72975 1.46284 -0.05533
-0.00051 0.57924 0.00015 181.79821 0 -3.98667 1.66218 3.19349 -5.12603 -32.03824 4.32408 4.02335 -9.81758 -71.05413 -73.46388 23.36061 77.21391 -19.16354 -2.11658 -5.6635 66.88419 69.03447 23.13568 -70.94847 -24.55706 1.38843 -3.92641 3.34423 4.84546 -6.50572 -1.923 -2.85922 -6.78033 -1.16857 5.87454 -2.45635 -7.98479 5.72548 1.46385 -0.05052
